<svg width="17" height="17" viewBox="0 0 17 17" fill="none" xmlns="http://www.w3.org/2000/svg">
<g id="Arbitrum Blockchain" clip-path="url(#clip0_232_4546)">
<g id="Logos_and_symbols">
<g id="Symbol_-_Original_7_">
<path id="Vector" d="M10.8151 7.83256L12.0937 5.77735L15.5401 10.8623L15.5417 11.8381L15.5305 5.12303C15.5223 4.95888 15.4303 4.80871 15.2835 4.72017L9.07874 1.33921C8.93361 1.27165 8.74953 1.27236 8.60467 1.34131C8.58511 1.35062 8.56668 1.36071 8.54912 1.37171L8.52751 1.38461L2.50476 4.69079L2.48136 4.70082C2.45132 4.71392 2.42096 4.73056 2.39243 4.7499C2.27826 4.8275 2.2024 4.9422 2.17787 5.07087C2.1742 5.09037 2.17149 5.11023 2.1702 5.13024L2.17965 10.6024L5.38981 5.88909C5.79396 5.26409 6.67456 5.06279 7.492 5.07374L8.45144 5.09774L2.79847 13.6856L3.46484 14.0491L9.18556 5.10645L11.7141 5.09774L6.00814 14.266L8.38595 15.5616L8.67004 15.7164C8.79021 15.7626 8.93188 15.7649 9.05307 15.7235L15.3451 12.2694L14.1421 12.9297L10.8151 7.83256ZM11.3029 14.4884L8.9013 10.9177L10.3673 8.56116L13.5214 13.2705L11.3029 14.4884Z" fill="#2D374B"/>
<path id="Vector_2" d="M8.90134 10.9152L11.303 14.4858L13.5215 13.2679L10.3674 8.55859L8.90134 10.9152Z" fill="#28A0F0"/>
<path id="Vector_3" d="M15.5419 11.8342L15.5402 10.8584L12.0939 5.77344L10.8152 7.82865L14.1422 12.9258L15.3452 12.2655C15.4632 12.1748 15.5346 12.0415 15.5421 11.8978L15.5419 11.8342Z" fill="#28A0F0"/>
<path id="Vector_4" d="M1.09969 12.7554L2.79844 13.6826L8.4514 5.09474L7.49197 5.07073C6.67453 5.05978 5.79398 5.26108 5.38977 5.88608L2.17962 10.5994L1.09964 12.1713V12.7554H1.09969Z" fill="white"/>
<path id="Vector_5" d="M11.7141 5.09375L9.18559 5.10245L3.46487 14.0451L5.46441 15.1357L6.00818 14.262L11.7141 5.09375Z" fill="white"/>
<path id="Vector_6" d="M16.6075 5.0832C16.5864 4.58227 16.3001 4.12367 15.8516 3.8567L9.56549 0.432285C9.12184 0.220642 8.56758 0.220386 8.12323 0.432131C8.07071 0.457211 2.01009 3.78688 2.01009 3.78688C1.92623 3.82496 1.84545 3.87036 1.76943 3.92185C1.36906 4.19369 1.125 4.61605 1.09993 5.08013V12.1721L2.17991 10.6002L2.17045 5.12809C2.17175 5.10808 2.17439 5.08842 2.17812 5.06897C2.20249 4.94019 2.2784 4.82534 2.39268 4.74774C2.42121 4.7284 8.58531 1.34846 8.60492 1.33915C8.74983 1.2702 8.93392 1.26949 9.07899 1.33705L15.2838 4.71801C15.4306 4.80655 15.5226 4.95673 15.5308 5.12087V11.8995C15.5232 12.0433 15.4633 12.1765 15.3453 12.2673L14.1423 12.9276L13.5217 13.2683L11.3031 14.4862L9.05327 15.7214C8.93208 15.7628 8.79041 15.7605 8.67024 15.7142L6.00834 14.2639L5.46457 15.1375L7.85675 16.4422C7.93585 16.4848 8.00636 16.5225 8.06418 16.5534C8.15376 16.601 8.21476 16.6327 8.23632 16.6426C8.40636 16.7208 8.65096 16.7664 8.8714 16.7664C9.07353 16.7664 9.27059 16.7312 9.4571 16.662L15.9919 13.077C16.367 12.8017 16.5877 12.3866 16.6075 11.9368V5.0832Z" fill="#96BEDC"/>
</g>
</g>
</g>
<defs>
<clipPath id="clip0_232_4546">
<rect width="16" height="17" fill="white" transform="translate(0.823517)"/>
</clipPath>
</defs>
</svg>
