<svg width="17" height="16" viewBox="0 0 17 16" fill="none" xmlns="http://www.w3.org/2000/svg">
<g id="wrapper">
<path id="Vector" d="M11.7633 6.11336C11.6384 5.98919 11.4695 5.91949 11.2933 5.91949C11.1172 5.91949 10.9482 5.98919 10.8233 6.11336L8.43 8.47336L6.07 6.11336C5.94509 5.98919 5.77612 5.91949 5.6 5.91949C5.42388 5.91949 5.25491 5.98919 5.13 6.11336C5.06751 6.17533 5.01792 6.24907 4.98407 6.33031C4.95023 6.41154 4.9328 6.49868 4.9328 6.58669C4.9328 6.6747 4.95023 6.76183 4.98407 6.84307C5.01792 6.92431 5.06751 6.99805 5.13 7.06002L7.95667 9.88669C8.01864 9.94918 8.09237 9.99877 8.17361 10.0326C8.25485 10.0665 8.34199 10.0839 8.43 10.0839C8.51801 10.0839 8.60514 10.0665 8.68638 10.0326C8.76762 9.99877 8.84136 9.94918 8.90333 9.88669L11.7633 7.06002C11.8258 6.99805 11.8754 6.92431 11.9093 6.84307C11.9431 6.76183 11.9605 6.6747 11.9605 6.58669C11.9605 6.49868 11.9431 6.41154 11.9093 6.33031C11.8754 6.24907 11.8258 6.17533 11.7633 6.11336Z" fill="#8B919E"/>
</g>
</svg>
