<svg width="24" height="24" viewBox="0 0 24 24" fill="none" xmlns="http://www.w3.org/2000/svg">
<g id="wrapper">
<path id="Vector" d="M18.6072 15.6276C18.3583 15.8661 18.0217 16 17.6709 16C17.32 16 16.9834 15.8661 16.7346 15.6276L11.9668 11.0939L7.26542 15.6276C7.01659 15.8661 6.67999 16 6.32913 16C5.97827 16 5.64167 15.8661 5.39284 15.6276C5.26836 15.5085 5.16956 15.3669 5.10214 15.2108C5.03471 15.0547 5 14.8874 5 14.7183C5 14.5492 5.03471 14.3818 5.10214 14.2258C5.16956 14.0697 5.26836 13.928 5.39284 13.809L11.0239 8.37883C11.1473 8.25879 11.2942 8.16351 11.4561 8.09849C11.6179 8.03348 11.7915 8 11.9668 8C12.1421 8 12.3157 8.03348 12.4775 8.09849C12.6394 8.16351 12.7863 8.25879 12.9097 8.37883L18.6072 13.809C18.7316 13.928 18.8304 14.0697 18.8979 14.2258C18.9653 14.3818 19 14.5492 19 14.7183C19 14.8874 18.9653 15.0547 18.8979 15.2108C18.8304 15.3669 18.7316 15.5085 18.6072 15.6276Z" fill="white"/>
</g>
</svg>
