<svg width="25" height="24" viewBox="0 0 25 24" fill="none" xmlns="http://www.w3.org/2000/svg">
<g id="Avalanche Blockchain">
<g clip-path="url(#clip0_232_4565)">
<circle id="Ellipse 7" cx="12.2941" cy="12" r="12" fill="#E84142"/>
<path id="Subtract" fill-rule="evenodd" clip-rule="evenodd" d="M6.56858 16.7686H8.8959C9.44386 16.7686 9.71782 16.7686 9.96234 16.701C10.2304 16.6213 10.4749 16.4801 10.6782 16.2857C10.8649 16.108 10.9996 15.8724 11.2653 15.4077L11.2655 15.4074L11.2733 15.3938L14.2918 10.0615C14.5598 9.59342 14.6924 9.35789 14.7513 9.1106C14.8161 8.84269 14.8161 8.56007 14.7513 8.29216C14.6929 8.04673 14.5589 7.81289 14.2948 7.35177L14.2888 7.34125L13.1075 5.28045C12.863 4.85062 12.7392 4.6357 12.5831 4.55622C12.4152 4.47084 12.2148 4.47084 12.0469 4.55622C11.8908 4.6357 11.7671 4.85062 11.5225 5.28045L5.77612 15.4026C5.53456 15.8265 5.41376 16.0386 5.4226 16.2122C5.43439 16.4006 5.5316 16.5714 5.69069 16.6745C5.83798 16.7686 6.07955 16.7686 6.56858 16.7686ZM18.1079 16.7686H14.7731C14.2812 16.7686 14.0337 16.7686 13.8893 16.6745C13.7303 16.5714 13.633 16.3978 13.6213 16.2093C13.6125 16.037 13.7342 15.8269 13.9778 15.4067L13.9779 15.4066L13.9836 15.3968L15.6481 12.5411C15.8926 12.1201 16.0163 11.9111 16.1695 11.8316C16.3374 11.7462 16.5349 11.7462 16.7027 11.8316C16.8548 11.909 16.9733 12.1091 17.2077 12.5054L17.2081 12.506L17.2271 12.5381L18.8975 15.3938L18.9216 15.4353L18.9217 15.4354C19.1532 15.8346 19.2713 16.0384 19.2629 16.2064C19.2539 16.3947 19.1538 16.5685 18.9948 16.6716C18.8474 16.7686 18.5999 16.7686 18.1079 16.7686H18.1079Z" fill="white"/>
</g>
</g>
<defs>
<clipPath id="clip0_232_4565">
<rect x="0.294098" width="24" height="24" rx="12" fill="white"/>
</clipPath>
</defs>
</svg>
