<svg width="25" height="24" viewBox="0 0 25 24" fill="none" xmlns="http://www.w3.org/2000/svg">
<g id="BNB Blockchain">
<g clip-path="url(#clip0_232_4523)">
<circle id="Ellipse 3" cx="12.4118" cy="12" r="12" fill="#F0B90B"/>
<g id="Group 2609645">
<g id="Group">
<path id="Vector" d="M7.00699 11.9997L7.01564 15.1728L9.7118 16.7593V18.617L5.43776 16.1103V11.0718L7.00699 11.9997ZM7.00699 8.82666V10.6757L5.4368 9.74685V7.89781L7.00699 6.96896L8.58488 7.89781L7.00699 8.82666ZM10.8378 7.89781L12.408 6.96896L13.9858 7.89781L12.408 8.82666L10.8378 7.89781Z" fill="white"/>
<path id="Vector_2" d="M8.1416 14.5151V12.6574L9.71179 13.5863V15.4353L8.1416 14.5151ZM10.8378 17.4247L12.4079 18.3536L13.9858 17.4247V19.2738L12.4079 20.2026L10.8378 19.2738V17.4247ZM16.2378 7.89781L17.8079 6.96896L19.3858 7.89781V9.74685L17.8079 10.6757V8.82666L16.2378 7.89781ZM17.8079 15.1728L17.8166 11.9997L19.3868 11.0709V16.1093L15.1128 18.6161V16.7584L17.8079 15.1728Z" fill="white"/>
<path id="Vector_3" d="M16.682 14.5139L15.1118 15.4341V13.5851L16.682 12.6562V14.5139Z" fill="white"/>
<path id="Vector_4" d="M16.682 9.48438L16.6906 11.3421L13.9868 12.9286V16.1094L12.4166 17.0296L10.8464 16.1094V12.9286L8.14256 11.3421V9.48438L9.71949 8.55553L12.407 10.1498L15.1108 8.55553L16.6887 9.48438H16.682ZM8.1416 6.31226L12.4079 3.79688L16.682 6.31226L15.1118 7.24111L12.4079 5.64688L9.71179 7.24111L8.1416 6.31226Z" fill="white"/>
</g>
</g>
</g>
</g>
<defs>
<clipPath id="clip0_232_4523">
<rect x="0.411774" width="24" height="24" rx="12" fill="white"/>
</clipPath>
</defs>
</svg>
