<svg width="24" height="24" viewBox="0 0 24 24" fill="none" xmlns="http://www.w3.org/2000/svg">
<g id="crypto-asset-BTC" clip-path="url(#clip0_1_88)">
<path id="Vector" d="M23.6381 14.903C22.0353 21.3315 15.5243 25.2439 9.09495 23.6408C2.66827 22.038 -1.24406 15.5266 0.359418 9.0984C1.9614 2.66907 8.47245 -1.24364 14.8999 0.359096C21.3288 1.96183 25.2408 8.47403 23.6381 14.903Z" fill="#F7931A"/>
<path id="Vector_2" fill-rule="evenodd" clip-rule="evenodd" d="M17.2898 10.2904C17.5286 8.6937 16.3129 7.83532 14.6505 7.26273L15.1898 5.09976L13.8731 4.77164L13.3481 6.87762C13.002 6.79137 12.6465 6.70999 12.2933 6.62937L12.822 4.50951L11.5062 4.1814L10.9666 6.34362C10.6801 6.27837 10.3988 6.21387 10.1258 6.146L10.1273 6.13925L8.31158 5.68587L7.96133 7.09212C7.96133 7.09212 8.9382 7.31598 8.91758 7.32986C9.45083 7.46298 9.5472 7.81582 9.53108 8.09557C9.03825 10.0724 8.54678 12.0437 8.05358 14.0209C7.98833 14.1829 7.82295 14.4259 7.45021 14.3337C7.46333 14.3528 6.49322 14.0948 6.49322 14.0948L5.8396 15.6019L7.55295 16.029C7.74428 16.077 7.93335 16.1263 8.1204 16.175C8.24498 16.2075 8.36873 16.2398 8.49158 16.2712L7.9467 18.459L9.26183 18.7871L9.80145 16.6226C10.1607 16.7201 10.5095 16.8101 10.8507 16.8949L10.313 19.0492L11.6296 19.3774L12.1744 17.1937C14.4195 17.6186 16.1078 17.4472 16.8184 15.4166C17.391 13.7817 16.7899 12.8386 15.6086 12.2236C16.4689 12.0252 17.1169 11.4593 17.2898 10.2904ZM14.2815 14.5088C13.9082 16.0088 11.5603 15.3886 10.486 15.1049C10.3894 15.0793 10.303 15.0565 10.2293 15.0383L10.9523 12.1399C11.042 12.1624 11.1516 12.1869 11.2757 12.2148C12.3869 12.4641 14.664 12.9751 14.2815 14.5088ZM11.499 10.8697C12.3947 11.1088 14.3484 11.6302 14.6888 10.2668C15.0363 8.87235 13.1374 8.45197 12.21 8.2467C12.1057 8.2236 12.0137 8.2032 11.9385 8.18445L11.283 10.8132C11.345 10.8286 11.4176 10.848 11.499 10.8697Z" fill="white"/>
</g>
<defs>
<clipPath id="clip0_1_88">
<rect width="24" height="24" fill="white"/>
</clipPath>
</defs>
</svg>
