<svg width="140" height="140" viewBox="0 0 140 140" fill="none" xmlns="http://www.w3.org/2000/svg">
<g id="Group 2610675">
<circle id="Ellipse 15" cx="70" cy="70" r="55" stroke="white" stroke-opacity="0.05" stroke-width="30"/>
<path id="Ellipse 13" d="M70 125C62.7773 125 55.6253 123.577 48.9524 120.813C42.2795 118.049 36.2163 113.998 31.1091 108.891C26.0019 103.784 21.9506 97.7205 19.1866 91.0476C16.4226 84.3747 15 77.2227 15 70C15 62.7773 16.4226 55.6253 19.1866 48.9524C21.9506 42.2795 26.0019 36.2163 31.1091 31.1091C36.2164 26.0019 42.2795 21.9506 48.9524 19.1866C55.6253 16.4226 62.7773 15 70 15" stroke="white" stroke-width="14"/>
<path id="Ellipse 14" d="M70 125C77.2227 125 84.3747 123.577 91.0476 120.813C97.7205 118.049 103.784 113.998 108.891 108.891C113.998 103.784 118.049 97.7205 120.813 91.0476C123.577 84.3747 125 77.2227 125 70C125 62.7773 123.577 55.6253 120.813 48.9524C118.049 42.2795 113.998 36.2163 108.891 31.1091C103.784 26.0019 97.7205 21.9506 91.0476 19.1866C84.3747 16.4226 77.2227 15 70 15" stroke="#EF3C28" stroke-width="14"/>
</g>
</svg>
