<svg width="32" height="32" viewBox="0 0 32 32" fill="none" xmlns="http://www.w3.org/2000/svg">
<g id="Chield_check_duotone_line">
<path id="Vector 4" d="M6.96447 8.11779L7.35839 9.03693L6.96447 8.11779C6.14523 8.46889 5.6572 9.31972 5.76775 10.2041L6.71407 17.7747C6.93422 19.5359 7.81519 21.1477 9.17872 22.284L14.7197 26.9014C15.4613 27.5195 16.5387 27.5195 17.2804 26.9014L22.8213 22.284C24.1848 21.1477 25.0658 19.5359 25.286 17.7747L26.2323 10.2041C26.3428 9.31973 25.8548 8.46889 25.0356 8.11779L16.7879 4.58305C16.2848 4.36744 15.7153 4.36744 15.2122 4.58305L6.96447 8.11779Z" fill="#0066FF" fill-opacity="0.25" stroke="#0066FF" stroke-width="2" stroke-linecap="round"/>
<path id="Line 1" d="M12 16L15.5687 19.5687C15.7918 19.7918 16.1633 19.7551 16.3383 19.4925L21.3333 12" stroke="#0066FF" stroke-width="2" stroke-linecap="round"/>
</g>
</svg>
