<svg width="24" height="24" viewBox="0 0 24 24" fill="none" xmlns="http://www.w3.org/2000/svg">
<g id="Group">
<path id="Vector" d="M12 24C18.6274 24 24 18.6274 24 12C24 5.37258 18.6274 0 12 0C5.37258 0 0 5.37258 0 12C0 18.6274 5.37258 24 12 24Z" fill="#627EEA"/>
<g id="Group_2">
<path id="Vector_2" d="M12.3737 3V9.6525L17.9964 12.165L12.3737 3Z" fill="white" fill-opacity="0.602"/>
<path id="Vector_3" d="M12.3736 3L6.75012 12.165L12.3736 9.6525V3Z" fill="white"/>
<path id="Vector_4" d="M12.3737 16.4761V20.9963L18.0002 13.2121L12.3737 16.4761Z" fill="white" fill-opacity="0.602"/>
<path id="Vector_5" d="M12.3736 20.9963V16.4753L6.75012 13.2121L12.3736 20.9963Z" fill="white"/>
<path id="Vector_6" d="M12.3737 15.4299L17.9964 12.1651L12.3737 9.65411V15.4299Z" fill="white" fill-opacity="0.2"/>
<path id="Vector_7" d="M6.75012 12.1651L12.3736 15.4299V9.65411L6.75012 12.1651Z" fill="white" fill-opacity="0.602"/>
</g>
</g>
</svg>
