<svg width="16" height="16" viewBox="0 0 16 16" fill="none" xmlns="http://www.w3.org/2000/svg">
<g id="wrapper">
<path id="Vector" d="M12 6.66667C12 6.48986 11.9298 6.32029 11.8047 6.19527C11.6797 6.07024 11.5101 6.00001 11.3333 6.00001H3.60666L5.13999 4.47334C5.26553 4.3478 5.33605 4.17754 5.33605 4.00001C5.33605 3.82247 5.26553 3.65221 5.13999 3.52667C5.01446 3.40114 4.84419 3.33061 4.66666 3.33061C4.48912 3.33061 4.31886 3.40114 4.19332 3.52667L1.52666 6.19334C1.43415 6.28709 1.37149 6.40614 1.34657 6.53546C1.32166 6.66479 1.3356 6.7986 1.38666 6.92001C1.43667 7.04175 1.5216 7.14597 1.63075 7.21953C1.7399 7.29308 1.86837 7.33268 1.99999 7.33334H11.3333C11.5101 7.33334 11.6797 7.2631 11.8047 7.13808C11.9298 7.01305 12 6.84348 12 6.66667ZM14.6133 9.08001C14.5633 8.95826 14.4784 8.85404 14.3692 8.78049C14.2601 8.70693 14.1316 8.66733 14 8.66667H4.66666C4.48985 8.66667 4.32028 8.73691 4.19525 8.86194C4.07023 8.98696 3.99999 9.15653 3.99999 9.33334C3.99999 9.51015 4.07023 9.67972 4.19525 9.80474C4.32028 9.92977 4.48985 10 4.66666 10H12.3933L10.86 11.5267C10.7975 11.5886 10.7479 11.6624 10.7141 11.7436C10.6802 11.8249 10.6628 11.912 10.6628 12C10.6628 12.088 10.6802 12.1752 10.7141 12.2564C10.7479 12.3376 10.7975 12.4114 10.86 12.4733C10.922 12.5358 10.9957 12.5854 11.0769 12.6193C11.1582 12.6531 11.2453 12.6705 11.3333 12.6705C11.4213 12.6705 11.5085 12.6531 11.5897 12.6193C11.6709 12.5854 11.7447 12.5358 11.8067 12.4733L14.4733 9.80667C14.5658 9.71292 14.6285 9.59388 14.6534 9.46455C14.6783 9.33522 14.6644 9.20141 14.6133 9.08001Z" fill="#4D586A"/>
</g>
</svg>
