<svg width="20" height="20" viewBox="0 0 20 20" fill="none" xmlns="http://www.w3.org/2000/svg">
<g id="eye 1" opacity="0.3">
<path id="Vector" d="M10.4167 7.50001C9.00002 7.50001 7.91669 8.58334 7.91669 10C7.91669 11.4167 9.00002 12.5 10.4167 12.5C11.8334 12.5 12.9167 11.4167 12.9167 10C12.9167 8.58334 11.8334 7.50001 10.4167 7.50001ZM18.6667 9.66668C17 5.75001 13.8334 3.33334 10.4167 3.33334C7.00002 3.33334 3.83335 5.75001 2.16669 9.66668C2.08335 9.91668 2.08335 10.0833 2.16669 10.3333C3.83335 14.25 7.00002 16.6667 10.4167 16.6667C13.8334 16.6667 17 14.25 18.6667 10.3333C18.75 10.0833 18.75 9.91668 18.6667 9.66668ZM10.4167 14.1667C8.08335 14.1667 6.25002 12.3333 6.25002 10C6.25002 7.66668 8.08335 5.83334 10.4167 5.83334C12.75 5.83334 14.5834 7.66668 14.5834 10C14.5834 12.3333 12.75 14.1667 10.4167 14.1667Z" fill="white"/>
</g>
</svg>
