<svg width="25" height="24" viewBox="0 0 25 24" fill="none" xmlns="http://www.w3.org/2000/svg">
<g id="Fantom Blockchain">
<g clip-path="url(#clip0_232_4537)">
<circle id="Ellipse 5" cx="12.3529" cy="12" r="12" fill="#13B5EC"/>
<g id="Layer 2">
<g id="Layer 1">
<g id="Group">
<path id="Vector" fill-rule="evenodd" clip-rule="evenodd" d="M13.2529 9.675L15.9529 8.1V11.25L13.2529 9.675ZM15.9529 16.425L12.3529 18.525L8.75294 16.425V12.75L12.3529 14.85L15.9529 12.75V16.425ZM8.75294 8.1L11.4529 9.675L8.75294 11.25V8.1ZM12.8029 10.425L15.5029 12L12.8029 13.575V10.425ZM11.9029 13.575L9.20294 12L11.9029 10.425V13.575ZM15.5029 7.35L12.3529 9.15L9.20294 7.35L12.3529 5.475L15.5029 7.35ZM7.85294 7.05V16.875L12.3529 19.425L16.8529 16.875V7.05L12.3529 4.5L7.85294 7.05Z" fill="white"/>
</g>
</g>
</g>
</g>
</g>
<defs>
<clipPath id="clip0_232_4537">
<rect x="0.352936" width="24" height="24" rx="12" fill="white"/>
</clipPath>
</defs>
</svg>
