<svg width="49" height="40" viewBox="0 0 49 40" fill="none" xmlns="http://www.w3.org/2000/svg">
<g id="Frame">
<rect x="0.857178" width="48" height="40" rx="8" fill="#222426"/>
<path id="Vector" d="M30.3966 10C30.63 10.0606 30.8635 10.0985 31.0891 10.1819C32.3341 10.6213 33.1355 11.864 32.9799 13.1294C32.8165 14.4403 31.7894 15.4708 30.4589 15.6375C29.7742 15.7208 29.1361 15.5845 28.5526 15.2132C28.4203 15.1298 28.3347 15.1298 28.2024 15.2132C26.1094 16.4634 24.0163 17.7137 21.9233 18.9563C21.7988 19.0321 21.7521 19.1003 21.7754 19.2519C21.8066 19.4337 21.7988 19.6231 21.7754 19.805C21.7599 19.9262 21.791 19.9793 21.8922 20.0399C24.0085 21.2977 26.1249 22.5555 28.2413 23.821C28.3736 23.9043 28.4514 23.8588 28.5603 23.7982C29.4863 23.2451 30.4511 23.1996 31.4237 23.6618C32.5597 24.2074 33.1744 25.4425 32.9565 26.7079C32.7542 27.8596 31.7194 28.822 30.5133 28.9735C28.8638 29.1857 27.4166 28.1021 27.2143 26.5033C27.1909 26.3063 27.1909 26.0941 27.222 25.8971C27.2454 25.7532 27.1909 25.7001 27.082 25.6395C25.876 24.9272 24.6699 24.2074 23.4639 23.4876C22.5691 22.9496 21.6665 22.4192 20.7717 21.8812C20.655 21.813 20.5772 21.813 20.4683 21.8812C18.7254 22.942 16.5389 22.063 16.0721 20.1157C15.6986 18.5623 16.819 16.9635 18.4452 16.7286C19.1533 16.5998 19.8225 16.7362 20.4371 17.1226C20.5694 17.206 20.6628 17.1984 20.7951 17.1151C22.8803 15.8648 24.9734 14.6221 27.0586 13.3795C27.1909 13.3037 27.2298 13.2355 27.2143 13.0764C27.0509 11.6291 28.1402 10.2576 29.6185 10.0303C29.6574 10.0303 30.1865 10 30.3966 10Z" fill="#8B919E"/>
</g>
</svg>
