<svg width="16" height="16" viewBox="0 0 16 16" fill="none" xmlns="http://www.w3.org/2000/svg">
<g id="moon 1">
<path id="Vector" d="M14.6 8.93333C14.4667 8.59999 14.0667 8.46666 13.7333 8.59999C13 8.93333 12.2667 9.06666 11.4667 9.06666C11 9.06666 10.5333 8.99999 10.1333 8.86666C7.26668 8.13333 5.46668 5.19999 6.20001 2.26666C6.26668 2.13333 6.20001 1.93333 6.13334 1.79999C6.00001 1.59999 5.66668 1.39999 5.26668 1.59999C2.86668 2.66666 1.33334 5.06666 1.33334 7.73333C1.33334 11.4667 4.33334 14.4667 8.06668 14.4667C11.1333 14.4667 13.8667 12.3333 14.6 9.33333C14.6667 9.19999 14.6667 9.06666 14.6 8.93333Z" fill="#8B919E"/>
</g>
</svg>
