<svg width="25" height="24" viewBox="0 0 25 24" fill="none" xmlns="http://www.w3.org/2000/svg">
<g id="Optimism Blockchain">
<g clip-path="url(#clip0_232_4532)">
<circle id="Ellipse 4" cx="12.8824" cy="12" r="12" fill="#FF0420"/>
<path id="Vector" d="M9.38315 15.1879C8.66795 15.1879 8.08235 15.0199 7.62635 14.6839C7.17515 14.3431 6.94955 13.8535 6.94955 13.2247C6.94955 13.0903 6.96395 12.9319 6.99275 12.7399C7.06955 12.3079 7.17995 11.7895 7.32395 11.1799C7.73195 9.52872 8.78795 8.70312 10.4872 8.70312C10.948 8.70312 11.3656 8.77992 11.7304 8.93832C12.0952 9.08712 12.3832 9.31752 12.5944 9.62472C12.8056 9.92712 12.9112 10.2871 12.9112 10.7047C12.9112 10.8295 12.8968 10.9879 12.868 11.1799C12.7768 11.7127 12.6712 12.2359 12.5416 12.7399C12.3304 13.5607 11.9704 14.1799 11.452 14.5879C10.9384 14.9911 10.2472 15.1879 9.38315 15.1879ZM9.51275 13.8919C9.84875 13.8919 10.132 13.7911 10.3672 13.5943C10.6072 13.3975 10.78 13.0951 10.8808 12.6823C11.02 12.1159 11.1256 11.6263 11.1976 11.2039C11.2216 11.0791 11.236 10.9495 11.236 10.8151C11.236 10.2679 10.9528 9.99432 10.3816 9.99432C10.0456 9.99432 9.75755 10.0951 9.51755 10.2919C9.28235 10.4887 9.11435 10.7911 9.01355 11.2039C8.90315 11.6071 8.79755 12.0967 8.68715 12.6823C8.66315 12.8023 8.64875 12.9271 8.64875 13.0615C8.64395 13.6183 8.93675 13.8919 9.51275 13.8919Z" fill="white"/>
<path id="Vector_2" d="M13.3287 15.1002C13.2615 15.1002 13.2135 15.081 13.1751 15.0378C13.1463 14.9898 13.1367 14.937 13.1463 14.8746L14.3895 9.01857C14.3991 8.95137 14.4327 8.89857 14.4903 8.85537C14.5431 8.81217 14.6007 8.79297 14.6631 8.79297H17.0583C17.7255 8.79297 18.2583 8.93217 18.6615 9.20577C19.0695 9.48417 19.2759 9.88257 19.2759 10.4058C19.2759 10.5546 19.2567 10.713 19.2231 10.8762C19.0743 11.5674 18.7719 12.0762 18.3111 12.4074C17.8599 12.7386 17.2407 12.9018 16.4535 12.9018H15.2391L14.8263 14.8746C14.8119 14.9418 14.7831 14.9946 14.7255 15.0378C14.6727 15.081 14.6151 15.1002 14.5527 15.1002H13.3287ZM16.5159 11.6586C16.7703 11.6586 16.9863 11.5914 17.1735 11.4522C17.3655 11.313 17.4903 11.1162 17.5527 10.857C17.5719 10.7562 17.5815 10.665 17.5815 10.5882C17.5815 10.4154 17.5287 10.281 17.4279 10.1898C17.3271 10.0938 17.1495 10.0458 16.9047 10.0458H15.8247L15.4839 11.6586H16.5159Z" fill="white"/>
</g>
</g>
<defs>
<clipPath id="clip0_232_4532">
<rect x="0.882355" width="24" height="24" rx="12" fill="white"/>
</clipPath>
</defs>
</svg>
