<svg width="11" height="12" viewBox="0 0 11 12" fill="none" xmlns="http://www.w3.org/2000/svg">
<g id="Layer_1" clip-path="url(#clip0_1_111)">
<path id="Vector" d="M10.7761 9.28013C10.8031 9.27582 10.8301 9.27151 10.8571 9.26612C10.0785 9.78275 9.17519 10.1459 8.18532 10.3048C7.81364 10.3646 7.44471 10.3931 7.0802 10.392C4.74918 10.3883 2.61889 9.19285 1.41836 7.31595C1.32572 7.04228 1.25348 6.7573 1.20384 6.4637C0.693743 3.43339 2.79536 0.572787 5.89732 0.0744704C7.26659 -0.145328 8.60278 0.131575 9.71121 0.771036C9.71121 0.771036 9.71232 0.771036 9.71232 0.771575C9.59265 0.780733 9.47243 0.795279 9.35166 0.814672C6.95888 1.19878 5.33814 3.40538 5.73133 5.74289C6.12452 8.0804 8.3833 9.6637 10.7761 9.27959V9.28013Z" fill="url(#paint0_linear_1_111)"/>
<path id="Vector_2" d="M10.7761 9.28068C10.8031 9.27637 10.8301 9.27206 10.8571 9.26667C10.0785 9.7833 9.17519 10.1464 8.18532 10.3053C7.81364 10.3651 7.44471 10.3937 7.0802 10.3926C5.8135 9.63031 4.87877 8.35623 4.61848 6.80903C4.14202 3.97697 6.10577 1.30384 9.00479 0.837848C9.24192 0.799599 9.47739 0.777511 9.71121 0.770508C9.71121 0.770508 9.71232 0.770508 9.71232 0.771047C9.59265 0.780205 9.47243 0.79475 9.35166 0.814144C6.95888 1.19825 5.33814 3.40485 5.73133 5.74236C6.12452 8.07987 8.3833 9.66317 10.7761 9.27906V9.28068Z" fill="url(#paint1_linear_1_111)"/>
<path id="Vector_3" d="M10.8571 9.26579C10.1458 9.72532 9.27225 10.1391 8.18532 10.3044C4.53135 10.862 1.09134 8.47549 0.491357 4.91023C0.402572 4.38283 0.381064 3.86027 0.42077 3.3501C0.0248222 4.3936 -0.106977 5.54862 0.0909977 6.72464C0.699258 10.3395 4.0025 12.4954 7.70225 11.9012C10.1226 11.4293 10.8571 9.78027 10.8571 9.26579Z" fill="url(#paint2_linear_1_111)"/>
</g>
<defs>
<linearGradient id="paint0_linear_1_111" x1="1.15183" y1="6.1267" x2="10.3581" y2="4.57671" gradientUnits="userSpaceOnUse">
<stop stop-color="#1E3C85"/>
<stop offset="0.68" stop-color="#00C9DB"/>
<stop offset="1" stop-color="#00EBD1"/>
</linearGradient>
<linearGradient id="paint1_linear_1_111" x1="10.8571" y1="5.58236" x2="4.54734" y2="5.58236" gradientUnits="userSpaceOnUse">
<stop stop-color="#005FB3"/>
<stop offset="0.49" stop-color="#00C9DB"/>
<stop offset="1" stop-color="#00EBD1"/>
</linearGradient>
<linearGradient id="paint2_linear_1_111" x1="1.19722" y1="9.44512" x2="8.32615" y2="5.10701" gradientUnits="userSpaceOnUse">
<stop stop-color="#005FB3"/>
<stop offset="0.49" stop-color="#00C9DB"/>
<stop offset="1" stop-color="#00EBD1"/>
</linearGradient>
<clipPath id="clip0_1_111">
<rect width="10.8571" height="12" fill="white" transform="matrix(-1 0 0 1 10.8571 0)"/>
</clipPath>
</defs>
</svg>
