<svg width="25" height="24" viewBox="0 0 25 24" fill="none" xmlns="http://www.w3.org/2000/svg">
<g id="Group 2609647">
<circle id="Ellipse 2" cx="12.9412" cy="12" r="12" fill="#8347E6"/>
<path id="Vector" d="M17.106 9.15348C16.8085 8.9844 16.426 8.9844 16.086 9.15348L13.706 10.5483L12.091 11.436L9.75351 12.8309C9.45601 12.9999 9.07351 12.9999 8.73351 12.8309L6.90601 11.7319C6.60851 11.5628 6.39601 11.2246 6.39601 10.8442V8.73079C6.39601 8.39264 6.56601 8.05449 6.90601 7.84315L8.73351 6.78643C9.03101 6.61736 9.41351 6.61736 9.75351 6.78643L11.581 7.88542C11.8785 8.05449 12.091 8.39264 12.091 8.77306V10.1679L13.706 9.23801V7.80088C13.706 7.46273 13.536 7.12458 13.196 6.91324L9.79601 4.92661C9.49851 4.75754 9.11601 4.75754 8.77601 4.92661L5.29101 6.95551C4.95101 7.12458 4.78101 7.46273 4.78101 7.80088V11.7741C4.78101 12.1123 4.95101 12.4504 5.29101 12.6618L8.73351 14.6484C9.03101 14.8175 9.41351 14.8175 9.75351 14.6484L12.091 13.2958L13.706 12.3659L16.0435 11.0133C16.341 10.8442 16.7235 10.8442 17.0635 11.0133L18.891 12.07C19.1885 12.2391 19.401 12.5772 19.401 12.9577V15.0711C19.401 15.4092 19.231 15.7474 18.891 15.9587L17.106 17.0154C16.8085 17.1845 16.426 17.1845 16.086 17.0154L14.2585 15.9587C13.961 15.7897 13.7485 15.4515 13.7485 15.0711V13.7185L12.1335 14.6484V16.0433C12.1335 16.3814 12.3035 16.7196 12.6435 16.9309L16.086 18.9175C16.3835 19.0866 16.766 19.0866 17.106 18.9175L20.5485 16.9309C20.846 16.7618 21.0585 16.4237 21.0585 16.0433V12.0277C21.0585 11.6896 20.8885 11.3514 20.5485 11.1401L17.106 9.15348Z" fill="white"/>
</g>
</svg>
