<svg width="17" height="16" viewBox="0 0 17 16" fill="none" xmlns="http://www.w3.org/2000/svg">
<g id="wrapper">
<path id="Vector" d="M14.7551 13.5267L12.2817 11.0733C13.2418 9.87627 13.7067 8.35686 13.5809 6.82753C13.4551 5.2982 12.7482 3.87519 11.6054 2.85109C10.4626 1.827 8.97094 1.27967 7.43702 1.32164C5.90309 1.36362 4.44355 1.99171 3.3585 3.07676C2.27344 4.16181 1.64536 5.62136 1.60338 7.15528C1.56141 8.6892 2.10874 10.1809 3.13283 11.3237C4.15692 12.4664 5.57994 13.1734 7.10927 13.2992C8.6386 13.425 10.158 12.9601 11.3551 12L13.8084 14.4533C13.8704 14.5158 13.9441 14.5654 14.0254 14.5993C14.1066 14.6331 14.1937 14.6505 14.2817 14.6505C14.3697 14.6505 14.4569 14.6331 14.5381 14.5993C14.6194 14.5654 14.6931 14.5158 14.7551 14.4533C14.8752 14.329 14.9424 14.1629 14.9424 13.99C14.9424 13.8171 14.8752 13.651 14.7551 13.5267ZM7.61507 12C6.69209 12 5.78984 11.7263 5.02241 11.2135C4.25498 10.7007 3.65684 9.97191 3.30363 9.11919C2.95042 8.26646 2.85801 7.32815 3.03807 6.42291C3.21814 5.51766 3.66259 4.68614 4.31524 4.0335C4.96788 3.38085 5.7994 2.9364 6.70465 2.75633C7.60989 2.57627 8.5482 2.66868 9.40092 3.02189C10.2536 3.3751 10.9825 3.97324 11.4953 4.74067C12.008 5.5081 12.2817 6.41035 12.2817 7.33333C12.2817 8.57101 11.7901 9.75799 10.9149 10.6332C10.0397 11.5083 8.85275 12 7.61507 12Z" fill="white"/>
</g>
</svg>
