<svg width="16" height="16" viewBox="0 0 16 16" fill="none" xmlns="http://www.w3.org/2000/svg">
<g id="sort-amount-down 1" clip-path="url(#clip0_233_4725)">
<path id="Vector" d="M2.86273 6.47333L2.66939 6.27333V11.3333C2.66939 11.5101 2.59916 11.6797 2.47413 11.8047C2.34911 11.9298 2.17954 12 2.00273 12C1.82592 12 1.65635 11.9298 1.53132 11.8047C1.4063 11.6797 1.33606 11.5101 1.33606 11.3333V6.27333L1.14273 6.47333C1.01719 6.59887 0.846929 6.66939 0.669394 6.66939C0.49186 6.66939 0.321597 6.59887 0.196061 6.47333C0.0705252 6.3478 0 6.17753 0 6C0 5.82247 0.0705252 5.6522 0.196061 5.52667L1.52939 4.19333C1.5928 4.13264 1.66756 4.08506 1.74939 4.05333C1.82919 4.01806 1.91548 3.99984 2.00273 3.99984C2.08997 3.99984 2.17626 4.01806 2.25606 4.05333C2.3379 4.08506 2.41266 4.13264 2.47606 4.19333L3.80939 5.52667C3.87155 5.58883 3.92086 5.66262 3.9545 5.74383C3.98814 5.82505 4.00546 5.91209 4.00546 6C4.00546 6.08791 3.98814 6.17495 3.9545 6.25617C3.92086 6.33738 3.87155 6.41117 3.80939 6.47333C3.74724 6.53549 3.67344 6.5848 3.59223 6.61844C3.51101 6.65208 3.42397 6.66939 3.33606 6.66939C3.24815 6.66939 3.16111 6.65208 3.07989 6.61844C2.99868 6.5848 2.92489 6.53549 2.86273 6.47333ZM6.00273 10.6667H12.6694C12.8462 10.6667 13.0158 10.7369 13.1408 10.8619C13.2658 10.987 13.3361 11.1565 13.3361 11.3333C13.3361 11.5101 13.2658 11.6797 13.1408 11.8047C13.0158 11.9298 12.8462 12 12.6694 12H6.00273C5.82592 12 5.65635 11.9298 5.53132 11.8047C5.4063 11.6797 5.33606 11.5101 5.33606 11.3333C5.33606 11.1565 5.4063 10.987 5.53132 10.8619C5.65635 10.7369 5.82592 10.6667 6.00273 10.6667ZM12.6694 8.66667H6.00273C5.82592 8.66667 5.65635 8.59643 5.53132 8.4714C5.4063 8.34638 5.33606 8.17681 5.33606 8C5.33606 7.82319 5.4063 7.65362 5.53132 7.5286C5.65635 7.40357 5.82592 7.33333 6.00273 7.33333H12.6694C12.8462 7.33333 13.0158 7.40357 13.1408 7.5286C13.2658 7.65362 13.3361 7.82319 13.3361 8C13.3361 8.17681 13.2658 8.34638 13.1408 8.4714C13.0158 8.59643 12.8462 8.66667 12.6694 8.66667ZM12.6694 5.33333H6.00273C5.82592 5.33333 5.65635 5.2631 5.53132 5.13807C5.4063 5.01305 5.33606 4.84348 5.33606 4.66667C5.33606 4.48986 5.4063 4.32029 5.53132 4.19526C5.65635 4.07024 5.82592 4 6.00273 4H12.6694C12.8462 4 13.0158 4.07024 13.1408 4.19526C13.2658 4.32029 13.3361 4.48986 13.3361 4.66667C13.3361 4.84348 13.2658 5.01305 13.1408 5.13807C13.0158 5.2631 12.8462 5.33333 12.6694 5.33333Z" fill="white"/>
</g>
<defs>
<clipPath id="clip0_233_4725">
<rect width="16" height="16" fill="white" transform="matrix(1 0 0 -1 0 16)"/>
</clipPath>
</defs>
</svg>
