<svg width="16" height="16" viewBox="0 0 16 16" fill="none" xmlns="http://www.w3.org/2000/svg">
<g id="sort-amount-down 1">
<path id="Vector" opacity="0.9" d="M4.19333 9.52667L4 9.72667V4.66667C4 4.48986 3.92976 4.32029 3.80474 4.19526C3.67971 4.07024 3.51014 4 3.33333 4C3.15652 4 2.98695 4.07024 2.86193 4.19526C2.7369 4.32029 2.66667 4.48986 2.66667 4.66667V9.72667L2.47333 9.52667C2.3478 9.40113 2.17753 9.33061 2 9.33061C1.82246 9.33061 1.6522 9.40113 1.52667 9.52667C1.40113 9.6522 1.3306 9.82247 1.3306 10C1.3306 10.1775 1.40113 10.3478 1.52667 10.4733L2.86 11.8067C2.9234 11.8674 2.99816 11.9149 3.08 11.9467C3.1598 11.9819 3.24609 12.0002 3.33333 12.0002C3.42058 12.0002 3.50687 11.9819 3.58667 11.9467C3.6685 11.9149 3.74326 11.8674 3.80667 11.8067L5.14 10.4733C5.20216 10.4112 5.25146 10.3374 5.28511 10.2562C5.31875 10.175 5.33606 10.0879 5.33606 10C5.33606 9.91209 5.31875 9.82505 5.28511 9.74383C5.25146 9.66262 5.20216 9.58883 5.14 9.52667C5.07784 9.46451 5.00405 9.4152 4.92283 9.38156C4.84162 9.34792 4.75457 9.33061 4.66667 9.33061C4.57876 9.33061 4.49171 9.34792 4.4105 9.38156C4.32928 9.4152 4.25549 9.46451 4.19333 9.52667ZM7.33333 5.33333H14C14.1768 5.33333 14.3464 5.2631 14.4714 5.13807C14.5964 5.01305 14.6667 4.84348 14.6667 4.66667C14.6667 4.48986 14.5964 4.32029 14.4714 4.19526C14.3464 4.07024 14.1768 4 14 4H7.33333C7.15652 4 6.98695 4.07024 6.86193 4.19526C6.7369 4.32029 6.66667 4.48986 6.66667 4.66667C6.66667 4.84348 6.7369 5.01305 6.86193 5.13807C6.98695 5.2631 7.15652 5.33333 7.33333 5.33333ZM14 7.33333H7.33333C7.15652 7.33333 6.98695 7.40357 6.86193 7.5286C6.7369 7.65362 6.66667 7.82319 6.66667 8C6.66667 8.17681 6.7369 8.34638 6.86193 8.4714C6.98695 8.59643 7.15652 8.66667 7.33333 8.66667H14C14.1768 8.66667 14.3464 8.59643 14.4714 8.4714C14.5964 8.34638 14.6667 8.17681 14.6667 8C14.6667 7.82319 14.5964 7.65362 14.4714 7.5286C14.3464 7.40357 14.1768 7.33333 14 7.33333ZM14 10.6667H7.33333C7.15652 10.6667 6.98695 10.7369 6.86193 10.8619C6.7369 10.987 6.66667 11.1565 6.66667 11.3333C6.66667 11.5101 6.7369 11.6797 6.86193 11.8047C6.98695 11.9298 7.15652 12 7.33333 12H14C14.1768 12 14.3464 11.9298 14.4714 11.8047C14.5964 11.6797 14.6667 11.5101 14.6667 11.3333C14.6667 11.1565 14.5964 10.987 14.4714 10.8619C14.3464 10.7369 14.1768 10.6667 14 10.6667Z" fill="#3D4044"/>
</g>
</svg>
