<svg width="32" height="32" viewBox="0 0 32 32" fill="none" xmlns="http://www.w3.org/2000/svg">
<g id="File_dock_fill">
<rect width="32" height="32" rx="8" fill="#262729"/>
<path id="Vector" d="M8.98093 15.1155C8.98093 15.1155 16.0574 12.1049 18.5116 11.0448C19.4524 10.6208 22.6429 9.26391 22.6429 9.26391C22.6429 9.26391 24.1155 8.67032 23.9927 10.112C23.9518 10.7056 23.6246 12.7833 23.2974 15.0307C22.8065 18.2109 22.2747 21.6878 22.2747 21.6878C22.2747 21.6878 22.1929 22.6631 21.4976 22.8327C20.8022 23.0023 19.6569 22.2391 19.4524 22.0695C19.2887 21.9423 16.3846 20.0341 15.3211 19.1013C15.0347 18.8469 14.7075 18.3381 15.3619 17.7444C16.8345 16.3451 18.5934 14.6067 19.6569 13.5042C20.1477 12.9953 20.6386 11.8081 18.5934 13.2497C15.6892 15.3275 12.8259 17.278 12.8259 17.278C12.8259 17.278 12.1714 17.702 10.9443 17.3204C9.71716 16.9388 8.28552 16.4299 8.28552 16.4299C8.28552 16.4299 7.30388 15.7939 8.98093 15.1155Z" fill="white"/>
</g>
</svg>
