<svg width="21" height="16" viewBox="0 0 21 16" fill="none" xmlns="http://www.w3.org/2000/svg">
<g id="Group">
<path id="Vector" d="M14.0597 14.7348C14.0597 14.7348 10.2374 14.251 7.08298 10.4995C7.08298 10.4995 11.0615 11.0592 14.0597 14.7348Z" fill="white"/>
<path id="Vector_2" d="M16.9799 12.219C16.3879 12.6174 15.379 12.1432 14.7207 11.1662C14.0671 10.1892 14.015 9.06989 14.607 8.6715C15.1991 8.27311 16.2126 8.74738 16.8663 9.72438C17.5199 10.7061 17.572 11.8207 16.9799 12.219ZM19.0687 7.41943C17.5815 5.38006 14.1665 3.65371 14.1665 3.65371C12.6935 1.87994 11.2489 1.02151 10.4911 0.661062C10.2353 0.537752 9.93693 0.703747 9.90851 0.98831C9.83273 1.85623 9.57697 3.45452 8.78125 3.5304C7.17562 3.69165 2.55291 4.65443 0 9.16C0 9.16 4.7648 6.02033 13.494 13.1581C17.0084 16.0274 19.116 15.3587 19.5992 15.1975C20.0823 15.0362 20.4375 14.4718 20.3522 13.5897C20.267 12.7028 21.0343 10.1275 19.0639 7.41943" fill="white"/>
</g>
</svg>
