<svg width="32" height="32" viewBox="0 0 32 32" fill="none" xmlns="http://www.w3.org/2000/svg">
<g id="File_dock_fill">
<rect width="32" height="32" rx="8" fill="#262729"/>
<path id="Vector" d="M25.0616 9.92204C24.4701 10.1922 23.8482 10.3804 23.2114 10.4819C23.5091 10.4277 23.9472 9.85884 24.1216 9.62859C24.3865 9.28128 24.5884 8.88479 24.7171 8.45928C24.7171 8.42768 24.7468 8.38253 24.7171 8.35996C24.7021 8.35126 24.6852 8.34671 24.6681 8.34671C24.651 8.34671 24.6342 8.35126 24.6192 8.35996C23.9277 8.75744 23.1918 9.06081 22.4288 9.2629C22.4022 9.27152 22.3739 9.27229 22.3469 9.26513C22.32 9.25798 22.2953 9.24316 22.2757 9.22226C22.2163 9.1472 22.1524 9.07632 22.0843 9.01007C21.7731 8.71411 21.42 8.47188 21.038 8.29224C20.5223 8.06767 19.9653 7.97041 19.409 8.00781C18.8692 8.044 18.3422 8.19767 17.8608 8.45928C17.3867 8.73509 16.9701 9.10979 16.6359 9.56087C16.2843 10.0251 16.0306 10.5639 15.8916 11.141C15.777 11.6899 15.764 12.2573 15.8533 12.8114C15.8533 12.9063 15.8533 12.9198 15.7767 12.9063C12.7442 12.4322 10.256 11.29 8.22297 8.83851C8.13365 8.73016 8.08686 8.73016 8.01456 8.83851C7.12988 10.2652 7.55946 12.5225 8.66531 13.6376C8.81417 13.7866 8.96729 13.9311 9.12891 14.0665C8.62189 14.0283 8.12725 13.8825 7.6743 13.6376C7.58924 13.5789 7.54245 13.6105 7.5382 13.7189C7.52614 13.8691 7.52614 14.0201 7.5382 14.1704C7.62694 14.8903 7.89423 15.5723 8.31271 16.1466C8.7312 16.7209 9.28587 17.1669 9.92001 17.439C10.0746 17.5093 10.2357 17.5622 10.4006 17.597C9.93125 17.6951 9.44985 17.7104 8.97579 17.6422C8.87371 17.6196 8.83544 17.6783 8.87372 17.7821C9.49894 19.588 10.8557 20.1388 11.851 20.4458C11.9871 20.4684 12.1232 20.4684 12.2763 20.5045C12.2763 20.5045 12.2763 20.5045 12.2508 20.5316C11.9573 21.1004 10.7707 21.4842 10.2262 21.6828C9.23255 22.0617 8.17308 22.2065 7.12138 22.1072C6.9555 22.0801 6.91722 22.0846 6.87469 22.1072C6.83216 22.1298 6.87469 22.1794 6.92148 22.2246C7.13414 22.3736 7.3468 22.5045 7.56797 22.6309C8.22639 23.0121 8.92247 23.3149 9.64355 23.5338C13.3779 24.6264 17.5801 23.8228 20.383 20.8657C22.5862 18.5451 23.3603 15.3442 23.3603 12.1388C23.3603 12.0169 23.5006 11.9446 23.5814 11.8814C24.1388 11.4204 24.6302 10.876 25.0403 10.2652C25.1113 10.1741 25.1477 10.0582 25.1424 9.9401C25.1424 9.87238 25.1424 9.88592 25.0616 9.92204Z" fill="white"/>
</g>
</svg>
