<svg width="26" height="26" viewBox="0 0 26 26" fill="none" xmlns="http://www.w3.org/2000/svg">
<g id="icrypto-asset-USDT">
<g clip-path="url(#clip0_1_89)">
<path id="Vector" d="M13 1C19.6271 1 25 6.37284 25 13C25 19.6271 19.6269 25 13 25C6.37312 25 1 19.6285 1 13C1 6.37148 6.37216 1 13 1Z" fill="#21A27C"/>
<path id="Vector_2" d="M14.4815 11.4011V9.616H18.5636V6.896H7.44773V9.616H11.5303V11.3996C8.21237 11.5521 5.71753 12.2091 5.71753 12.9963C5.71753 13.7835 8.21353 14.4406 11.5303 14.594V20.3119H14.4823V14.5936C17.7943 14.4407 20.2841 13.7841 20.2841 12.9976C20.2841 12.211 17.7943 11.5545 14.4823 11.4016L14.4815 11.4011ZM14.4824 14.1092V14.1078C14.3992 14.1131 13.9712 14.1387 13.0184 14.1387C12.2567 14.1387 11.7207 14.1171 11.5319 14.1073V14.1097C8.6005 13.9799 6.41237 13.4694 6.41237 12.8585C6.41237 12.2478 8.60072 11.738 11.5319 11.608V13.6011C11.7239 13.6144 12.2729 13.6467 13.0309 13.6467C13.9412 13.6467 14.3989 13.6088 14.4829 13.6011V11.608C17.4085 11.7382 19.5915 12.2492 19.5915 12.8579C19.5915 13.4665 17.4071 13.9775 14.4824 14.1078" fill="white"/>
</g>
<rect x="1" y="1" width="24" height="24" rx="12" stroke="#222426" stroke-width="2"/>
</g>
<defs>
<clipPath id="clip0_1_89">
<rect x="1" y="1" width="24" height="24" rx="12" fill="white"/>
</clipPath>
</defs>
</svg>
