<svg width="16" height="16" viewBox="0 0 16 16" fill="none" xmlns="http://www.w3.org/2000/svg">
<g id="wrapper">
<path id="Vector" d="M11.9998 8.79998V6.66665C11.9998 4.73331 10.5998 3.06665 8.6665 2.73331V1.99998C8.6665 1.59998 8.39984 1.33331 7.99984 1.33331C7.59984 1.33331 7.33317 1.59998 7.33317 1.99998V2.73331C5.39984 3.06665 3.99984 4.73331 3.99984 6.66665V8.79998C3.19984 9.06665 2.6665 9.79998 2.6665 10.6666V12C2.6665 12.4 2.93317 12.6666 3.33317 12.6666H5.39984C5.73317 14.0666 7.19984 14.9333 8.59984 14.6C9.53317 14.3333 10.2665 13.6 10.5332 12.6666H12.6665C13.0665 12.6666 13.3332 12.4 13.3332 12V10.6666C13.3332 9.79998 12.7998 9.06665 11.9998 8.79998ZM7.99984 13.3333C7.53317 13.3333 7.0665 13.0666 6.8665 12.6666H9.19984C8.93317 13.0666 8.4665 13.3333 7.99984 13.3333Z" fill="#8B919E"/>
</g>
</svg>
